# This file uses centimeters as units for non-parametric coordinates.

v 0.131598 -1.067233 -2.291800
v 0.000000 -1.067233 -2.346310
v -0.131598 -1.067233 -2.291800
v -0.186107 -1.067233 -2.160202
v -0.131598 -1.067233 -2.028604
v 0.000000 -1.067233 -1.974095
v 0.131598 -1.067233 -2.028604
v 0.186107 -1.067233 -2.160202
v 0.243161 -0.971859 -2.403363
v 0.000000 -0.971859 -2.504084
v -0.243161 -0.971859 -2.403363
v -0.343882 -0.971859 -2.160202
v -0.243161 -0.971859 -1.917041
v 0.000000 -0.971859 -1.816321
v 0.243161 -0.971859 -1.917041
v 0.343882 -0.971859 -2.160202
v 0.317705 -0.829123 -2.477907
v 0.000000 -0.829123 -2.609505
v -0.317705 -0.829123 -2.477907
v -0.449303 -0.829123 -2.160202
v -0.317705 -0.829123 -1.842497
v 0.000000 -0.829123 -1.710899
v 0.317705 -0.829123 -1.842497
v 0.449303 -0.829123 -2.160202
v 0.343882 -0.660753 -2.504084
v 0.000000 -0.660753 -2.646524
v -0.343882 -0.660753 -2.504084
v -0.486322 -0.660753 -2.160202
v -0.343882 -0.660753 -1.816321
v 0.000000 -0.660753 -1.673880
v 0.343882 -0.660753 -1.816321
v 0.486322 -0.660753 -2.160202
v 0.317705 -0.492384 -2.477907
v 0.000000 -0.492384 -2.609505
v -0.317705 -0.492384 -2.477907
v -0.449303 -0.492384 -2.160202
v -0.317705 -0.492384 -1.842497
v 0.000000 -0.492384 -1.710899
v 0.317705 -0.492384 -1.842497
v 0.449303 -0.492384 -2.160202
v 0.243161 -0.349648 -2.403363
v 0.000000 -0.349648 -2.504084
v -0.243161 -0.349648 -2.403363
v -0.343882 -0.349648 -2.160202
v -0.243161 -0.349648 -1.917041
v 0.000000 -0.349648 -1.816321
v 0.243161 -0.349648 -1.917041
v 0.343882 -0.349648 -2.160202
v 0.131598 -0.254274 -2.291800
v 0.000000 -0.254274 -2.346310
v -0.131598 -0.254274 -2.291800
v -0.186107 -0.254274 -2.160202
v -0.131598 -0.254274 -2.028604
v 0.000000 -0.254274 -1.974095
v 0.131598 -0.254274 -2.028604
v 0.186107 -0.254274 -2.160202
v 0.000000 -1.100723 -2.160202
v 0.000000 -0.220783 -2.160202
vt 0.000000 0.125000
vt 0.125000 0.125000
vt 0.250000 0.125000
vt 0.375000 0.125000
vt 0.500000 0.125000
vt 0.625000 0.125000
vt 0.750000 0.125000
vt 0.875000 0.125000
vt 1.000000 0.125000
vt 0.000000 0.250000
vt 0.125000 0.250000
vt 0.250000 0.250000
vt 0.375000 0.250000
vt 0.500000 0.250000
vt 0.625000 0.250000
vt 0.750000 0.250000
vt 0.875000 0.250000
vt 1.000000 0.250000
vt 0.000000 0.375000
vt 0.125000 0.375000
vt 0.250000 0.375000
vt 0.375000 0.375000
vt 0.500000 0.375000
vt 0.625000 0.375000
vt 0.750000 0.375000
vt 0.875000 0.375000
vt 1.000000 0.375000
vt 0.000000 0.500000
vt 0.125000 0.500000
vt 0.250000 0.500000
vt 0.375000 0.500000
vt 0.500000 0.500000
vt 0.625000 0.500000
vt 0.750000 0.500000
vt 0.875000 0.500000
vt 1.000000 0.500000
vt 0.000000 0.625000
vt 0.125000 0.625000
vt 0.250000 0.625000
vt 0.375000 0.625000
vt 0.500000 0.625000
vt 0.625000 0.625000
vt 0.750000 0.625000
vt 0.875000 0.625000
vt 1.000000 0.625000
vt 0.000000 0.750000
vt 0.125000 0.750000
vt 0.250000 0.750000
vt 0.375000 0.750000
vt 0.500000 0.750000
vt 0.625000 0.750000
vt 0.750000 0.750000
vt 0.875000 0.750000
vt 1.000000 0.750000
vt 0.000000 0.875000
vt 0.125000 0.875000
vt 0.250000 0.875000
vt 0.375000 0.875000
vt 0.500000 0.875000
vt 0.625000 0.875000
vt 0.750000 0.875000
vt 0.875000 0.875000
vt 1.000000 0.875000
vt 0.062500 0.000000
vt 0.187500 0.000000
vt 0.312500 0.000000
vt 0.437500 0.000000
vt 0.562500 0.000000
vt 0.687500 0.000000
vt 0.812500 0.000000
vt 0.937500 0.000000
vt 0.062500 1.000000
vt 0.187500 1.000000
vt 0.312500 1.000000
vt 0.437500 1.000000
vt 0.562500 1.000000
vt 0.687500 1.000000
vt 0.812500 1.000000
vt 0.937500 1.000000
vn 0.324780 -0.888277 -0.324780
vn 0.000000 -0.888277 -0.459308
vn 0.000000 -0.691128 -0.722732
vn 0.511049 -0.691128 -0.511049
vn -0.324780 -0.888277 -0.324780
vn -0.511049 -0.691128 -0.511049
vn -0.459308 -0.888277 0.000000
vn -0.722732 -0.691128 0.000000
vn -0.324780 -0.888277 0.324780
vn -0.511049 -0.691128 0.511049
vn -0.000000 -0.888277 0.459308
vn -0.000000 -0.691128 0.722732
vn 0.324780 -0.888277 0.324780
vn 0.511049 -0.691128 0.511049
vn 0.459308 -0.888277 0.000000
vn 0.722732 -0.691128 0.000000
vn 0.357557 -0.356382 -0.863218
vn 0.357557 -0.356382 -0.863218
vn -0.357557 -0.356382 -0.863218
vn -0.357557 -0.356382 -0.863218
vn -0.863218 -0.356382 -0.357557
vn -0.863218 -0.356382 -0.357557
vn -0.863218 -0.356382 0.357557
vn -0.863218 -0.356382 0.357557
vn -0.357557 -0.356382 0.863218
vn -0.357557 -0.356382 0.863218
vn 0.357557 -0.356382 0.863218
vn 0.357557 -0.356382 0.863218
vn 0.863218 -0.356382 0.357557
vn 0.863218 -0.356382 0.357557
vn 0.863218 -0.356382 -0.357557
vn 0.863218 -0.356382 -0.357557
vn 0.382683 0.000000 -0.923879
vn 0.382683 0.000000 -0.923879
vn -0.382683 0.000000 -0.923879
vn -0.382683 0.000000 -0.923879
vn -0.923879 0.000000 -0.382683
vn -0.923879 0.000000 -0.382683
vn -0.923879 0.000000 0.382683
vn -0.923879 0.000000 0.382683
vn -0.382684 0.000000 0.923880
vn -0.382684 0.000000 0.923880
vn 0.382683 -0.000000 0.923880
vn 0.382683 -0.000000 0.923880
vn 0.923879 0.000000 0.382683
vn 0.923879 0.000000 0.382683
vn 0.923879 0.000000 -0.382684
vn 0.923879 0.000000 -0.382684
vn 0.357557 0.356382 -0.863218
vn 0.357557 0.356382 -0.863218
vn -0.357557 0.356382 -0.863218
vn -0.357557 0.356382 -0.863218
vn -0.863218 0.356382 -0.357557
vn -0.863218 0.356382 -0.357557
vn -0.863218 0.356382 0.357557
vn -0.863218 0.356382 0.357557
vn -0.357557 0.356382 0.863218
vn -0.357557 0.356382 0.863218
vn 0.357556 0.356382 0.863218
vn 0.357557 0.356382 0.863218
vn 0.863218 0.356382 0.357557
vn 0.863218 0.356382 0.357557
vn 0.863218 0.356382 -0.357557
vn 0.863218 0.356382 -0.357557
vn 0.000000 0.691128 -0.722732
vn 0.511049 0.691128 -0.511049
vn -0.511049 0.691128 -0.511049
vn -0.722732 0.691128 0.000000
vn -0.511049 0.691128 0.511049
vn -0.000000 0.691128 0.722732
vn 0.511049 0.691128 0.511049
vn 0.722732 0.691128 0.000000
vn 0.000000 0.888277 -0.459308
vn 0.324780 0.888277 -0.324780
vn -0.324780 0.888277 -0.324780
vn -0.459308 0.888277 0.000000
vn -0.324780 0.888277 0.324780
vn -0.000000 0.888277 0.459308
vn 0.324780 0.888277 0.324780
vn 0.459308 0.888277 0.000000
vn 0.000000 -1.000000 -0.000000
vn 0.000000 1.000000 -0.000000
s 1
f 1/1/1 2/2/2 10/11/3 9/10/4
f 2/2/2 3/3/5 11/12/6 10/11/3
f 3/3/5 4/4/7 12/13/8 11/12/6
f 4/4/7 5/5/9 13/14/10 12/13/8
f 5/5/9 6/6/11 14/15/12 13/14/10
f 6/6/11 7/7/13 15/16/14 14/15/12
f 7/7/13 8/8/15 16/17/16 15/16/14
f 8/8/15 1/9/1 9/18/4 16/17/16
f 9/10/4 10/11/3 18/20/17 17/19/18
f 10/11/3 11/12/6 19/21/19 18/20/20
f 11/12/6 12/13/8 20/22/21 19/21/22
f 12/13/8 13/14/10 21/23/23 20/22/24
f 13/14/10 14/15/12 22/24/25 21/23/26
f 14/15/12 15/16/14 23/25/27 22/24/28
f 15/16/14 16/17/16 24/26/29 23/25/30
f 16/17/16 9/18/4 17/27/31 24/26/32
f 17/19/18 18/20/17 26/29/33 25/28/34
f 18/20/20 19/21/19 27/30/35 26/29/36
f 19/21/22 20/22/21 28/31/37 27/30/38
f 20/22/24 21/23/23 29/32/39 28/31/40
f 21/23/26 22/24/25 30/33/41 29/32/42
f 22/24/28 23/25/27 31/34/43 30/33/44
f 23/25/30 24/26/29 32/35/45 31/34/46
f 24/26/32 17/27/31 25/36/47 32/35/48
f 25/28/34 26/29/33 34/38/49 33/37/50
f 26/29/36 27/30/35 35/39/51 34/38/52
f 27/30/38 28/31/37 36/40/53 35/39/54
f 28/31/40 29/32/39 37/41/55 36/40/56
f 29/32/42 30/33/41 38/42/57 37/41/58
f 30/33/44 31/34/43 39/43/59 38/42/60
f 31/34/46 32/35/45 40/44/61 39/43/62
f 32/35/48 25/36/47 33/45/63 40/44/64
f 33/37/50 34/38/49 42/47/65 41/46/66
f 34/38/52 35/39/51 43/48/67 42/47/65
f 35/39/54 36/40/53 44/49/68 43/48/67
f 36/40/56 37/41/55 45/50/69 44/49/68
f 37/41/58 38/42/57 46/51/70 45/50/69
f 38/42/60 39/43/59 47/52/71 46/51/70
f 39/43/62 40/44/61 48/53/72 47/52/71
f 40/44/64 33/45/63 41/54/66 48/53/72
f 41/46/66 42/47/65 50/56/73 49/55/74
f 42/47/65 43/48/67 51/57/75 50/56/73
f 43/48/67 44/49/68 52/58/76 51/57/75
f 44/49/68 45/50/69 53/59/77 52/58/76
f 45/50/69 46/51/70 54/60/78 53/59/77
f 46/51/70 47/52/71 55/61/79 54/60/78
f 47/52/71 48/53/72 56/62/80 55/61/79
f 48/53/72 41/54/66 49/63/74 56/62/80
f 2/2/2 1/1/1 57/64/81
f 3/3/5 2/2/2 57/65/81
f 4/4/7 3/3/5 57/66/81
f 5/5/9 4/4/7 57/67/81
f 6/6/11 5/5/9 57/68/81
f 7/7/13 6/6/11 57/69/81
f 8/8/15 7/7/13 57/70/81
f 1/9/1 8/8/15 57/71/81
f 49/55/74 50/56/73 58/72/82
f 50/56/73 51/57/75 58/73/82
f 51/57/75 52/58/76 58/74/82
f 52/58/76 53/59/77 58/75/82
f 53/59/77 54/60/78 58/76/82
f 54/60/78 55/61/79 58/77/82
f 55/61/79 56/62/80 58/78/82
f 56/62/80 49/63/74 58/79/82
v 0.131598 -1.067233 -2.291800
v 0.000000 -1.067233 -2.346310
v -0.131598 -1.067233 -2.291800
v -0.186107 -1.067233 -2.160202
v -0.131598 -1.067233 -2.028604
v 0.000000 -1.067233 -1.974095
v 0.131598 -1.067233 -2.028604
v 0.186107 -1.067233 -2.160202
v 0.243161 -0.971859 -2.403363
v 0.000000 -0.971859 -2.504084
v -0.243161 -0.971859 -2.403363
v -0.343882 -0.971859 -2.160202
v -0.243161 -0.971859 -1.917041
v 0.000000 -0.971859 -1.816321
v 0.243161 -0.971859 -1.917041
v 0.343882 -0.971859 -2.160202
v 0.317705 -0.829123 -2.477907
v 0.000000 -0.829123 -2.609505
v -0.317705 -0.829123 -2.477907
v -0.449303 -0.829123 -2.160202
v -0.317705 -0.829123 -1.842497
v 0.000000 -0.829123 -1.710899
v 0.317705 -0.829123 -1.842497
v 0.449303 -0.829123 -2.160202
v 0.343882 -0.660753 -2.504084
v 0.000000 -0.660753 -2.646524
v -0.343882 -0.660753 -2.504084
v -0.486322 -0.660753 -2.160202
v -0.343882 -0.660753 -1.816321
v 0.000000 -0.660753 -1.673880
v 0.343882 -0.660753 -1.816321
v 0.486322 -0.660753 -2.160202
v 0.317705 -0.492384 -2.477907
v 0.000000 -0.492384 -2.609505
v -0.317705 -0.492384 -2.477907
v -0.449303 -0.492384 -2.160202
v -0.317705 -0.492384 -1.842497
v 0.000000 -0.492384 -1.710899
v 0.317705 -0.492384 -1.842497
v 0.449303 -0.492384 -2.160202
v 0.243161 -0.349648 -2.403363
v 0.000000 -0.349648 -2.504084
v -0.243161 -0.349648 -2.403363
v -0.343882 -0.349648 -2.160202
v -0.243161 -0.349648 -1.917041
v 0.000000 -0.349648 -1.816321
v 0.243161 -0.349648 -1.917041
v 0.343882 -0.349648 -2.160202
v 0.131598 -0.254274 -2.291800
v 0.000000 -0.254274 -2.346310
v -0.131598 -0.254274 -2.291800
v -0.186107 -0.254274 -2.160202
v -0.131598 -0.254274 -2.028604
v 0.000000 -0.254274 -1.974095
v 0.131598 -0.254274 -2.028604
v 0.186107 -0.254274 -2.160202
v 0.000000 -1.100723 -2.160202
v 0.000000 -0.220783 -2.160202
vt 0.000000 0.125000
vt 0.125000 0.125000
vt 0.250000 0.125000
vt 0.375000 0.125000
vt 0.500000 0.125000
vt 0.625000 0.125000
vt 0.750000 0.125000
vt 0.875000 0.125000
vt 1.000000 0.125000
vt 0.000000 0.250000
vt 0.125000 0.250000
vt 0.250000 0.250000
vt 0.375000 0.250000
vt 0.500000 0.250000
vt 0.625000 0.250000
vt 0.750000 0.250000
vt 0.875000 0.250000
vt 1.000000 0.250000
vt 0.000000 0.375000
vt 0.125000 0.375000
vt 0.250000 0.375000
vt 0.375000 0.375000
vt 0.500000 0.375000
vt 0.625000 0.375000
vt 0.750000 0.375000
vt 0.875000 0.375000
vt 1.000000 0.375000
vt 0.000000 0.500000
vt 0.125000 0.500000
vt 0.250000 0.500000
vt 0.375000 0.500000
vt 0.500000 0.500000
vt 0.625000 0.500000
vt 0.750000 0.500000
vt 0.875000 0.500000
vt 1.000000 0.500000
vt 0.000000 0.625000
vt 0.125000 0.625000
vt 0.250000 0.625000
vt 0.375000 0.625000
vt 0.500000 0.625000
vt 0.625000 0.625000
vt 0.750000 0.625000
vt 0.875000 0.625000
vt 1.000000 0.625000
vt 0.000000 0.750000
vt 0.125000 0.750000
vt 0.250000 0.750000
vt 0.375000 0.750000
vt 0.500000 0.750000
vt 0.625000 0.750000
vt 0.750000 0.750000
vt 0.875000 0.750000
vt 1.000000 0.750000
vt 0.000000 0.875000
vt 0.125000 0.875000
vt 0.250000 0.875000
vt 0.375000 0.875000
vt 0.500000 0.875000
vt 0.625000 0.875000
vt 0.750000 0.875000
vt 0.875000 0.875000
vt 1.000000 0.875000
vt 0.062500 0.000000
vt 0.187500 0.000000
vt 0.312500 0.000000
vt 0.437500 0.000000
vt 0.562500 0.000000
vt 0.687500 0.000000
vt 0.812500 0.000000
vt 0.937500 0.000000
vt 0.062500 1.000000
vt 0.187500 1.000000
vt 0.312500 1.000000
vt 0.437500 1.000000
vt 0.562500 1.000000
vt 0.687500 1.000000
vt 0.812500 1.000000
vt 0.937500 1.000000
vn 0.324780 -0.888277 -0.324780
vn 0.000000 -0.888277 -0.459308
vn 0.000000 -0.691128 -0.722732
vn 0.511049 -0.691128 -0.511049
vn -0.324780 -0.888277 -0.324780
vn -0.511049 -0.691128 -0.511049
vn -0.459308 -0.888277 0.000000
vn -0.722732 -0.691128 0.000000
vn -0.324780 -0.888277 0.324780
vn -0.511049 -0.691128 0.511049
vn -0.000000 -0.888277 0.459308
vn -0.000000 -0.691128 0.722732
vn 0.324780 -0.888277 0.324780
vn 0.511049 -0.691128 0.511049
vn 0.459308 -0.888277 0.000000
vn 0.722732 -0.691128 0.000000
vn 0.357557 -0.356382 -0.863218
vn 0.357557 -0.356382 -0.863218
vn -0.357557 -0.356382 -0.863218
vn -0.357557 -0.356382 -0.863218
vn -0.863218 -0.356382 -0.357557
vn -0.863218 -0.356382 -0.357557
vn -0.863218 -0.356382 0.357557
vn -0.863218 -0.356382 0.357557
vn -0.357557 -0.356382 0.863218
vn -0.357557 -0.356382 0.863218
vn 0.357557 -0.356382 0.863218
vn 0.357557 -0.356382 0.863218
vn 0.863218 -0.356382 0.357557
vn 0.863218 -0.356382 0.357557
vn 0.863218 -0.356382 -0.357557
vn 0.863218 -0.356382 -0.357557
vn 0.382683 0.000000 -0.923879
vn 0.382683 0.000000 -0.923879
vn -0.382683 0.000000 -0.923879
vn -0.382683 0.000000 -0.923879
vn -0.923879 0.000000 -0.382683
vn -0.923879 0.000000 -0.382683
vn -0.923879 0.000000 0.382683
vn -0.923879 0.000000 0.382683
vn -0.382684 0.000000 0.923880
vn -0.382684 0.000000 0.923880
vn 0.382683 -0.000000 0.923880
vn 0.382683 -0.000000 0.923880
vn 0.923879 0.000000 0.382683
vn 0.923879 0.000000 0.382683
vn 0.923879 0.000000 -0.382684
vn 0.923879 0.000000 -0.382684
vn 0.357557 0.356382 -0.863218
vn 0.357557 0.356382 -0.863218
vn -0.357557 0.356382 -0.863218
vn -0.357557 0.356382 -0.863218
vn -0.863218 0.356382 -0.357557
vn -0.863218 0.356382 -0.357557
vn -0.863218 0.356382 0.357557
vn -0.863218 0.356382 0.357557
vn -0.357557 0.356382 0.863218
vn -0.357557 0.356382 0.863218
vn 0.357556 0.356382 0.863218
vn 0.357557 0.356382 0.863218
vn 0.863218 0.356382 0.357557
vn 0.863218 0.356382 0.357557
vn 0.863218 0.356382 -0.357557
vn 0.863218 0.356382 -0.357557
vn 0.000000 0.691128 -0.722732
vn 0.511049 0.691128 -0.511049
vn -0.511049 0.691128 -0.511049
vn -0.722732 0.691128 0.000000
vn -0.511049 0.691128 0.511049
vn -0.000000 0.691128 0.722732
vn 0.511049 0.691128 0.511049
vn 0.722732 0.691128 0.000000
vn 0.000000 0.888277 -0.459308
vn 0.324780 0.888277 -0.324780
vn -0.324780 0.888277 -0.324780
vn -0.459308 0.888277 0.000000
vn -0.324780 0.888277 0.324780
vn -0.000000 0.888277 0.459308
vn 0.324780 0.888277 0.324780
vn 0.459308 0.888277 0.000000
vn 0.000000 -1.000000 -0.000000
vn 0.000000 1.000000 -0.000000
s 1
f 59/80/83 60/81/84 68/90/85 67/89/86
f 60/81/84 61/82/87 69/91/88 68/90/85
f 61/82/87 62/83/89 70/92/90 69/91/88
f 62/83/89 63/84/91 71/93/92 70/92/90
f 63/84/91 64/85/93 72/94/94 71/93/92
f 64/85/93 65/86/95 73/95/96 72/94/94
f 65/86/95 66/87/97 74/96/98 73/95/96
f 66/87/97 59/88/83 67/97/86 74/96/98
f 67/89/86 68/90/85 76/99/99 75/98/100
f 68/90/85 69/91/88 77/100/101 76/99/102
f 69/91/88 70/92/90 78/101/103 77/100/104
f 70/92/90 71/93/92 79/102/105 78/101/106
f 71/93/92 72/94/94 80/103/107 79/102/108
f 72/94/94 73/95/96 81/104/109 80/103/110
f 73/95/96 74/96/98 82/105/111 81/104/112
f 74/96/98 67/97/86 75/106/113 82/105/114
f 75/98/100 76/99/99 84/108/115 83/107/116
f 76/99/102 77/100/101 85/109/117 84/108/118
f 77/100/104 78/101/103 86/110/119 85/109/120
f 78/101/106 79/102/105 87/111/121 86/110/122
f 79/102/108 80/103/107 88/112/123 87/111/124
f 80/103/110 81/104/109 89/113/125 88/112/126
f 81/104/112 82/105/111 90/114/127 89/113/128
f 82/105/114 75/106/113 83/115/129 90/114/130
f 83/107/116 84/108/115 92/117/131 91/116/132
f 84/108/118 85/109/117 93/118/133 92/117/134
f 85/109/120 86/110/119 94/119/135 93/118/136
f 86/110/122 87/111/121 95/120/137 94/119/138
f 87/111/124 88/112/123 96/121/139 95/120/140
f 88/112/126 89/113/125 97/122/141 96/121/142
f 89/113/128 90/114/127 98/123/143 97/122/144
f 90/114/130 83/115/129 91/124/145 98/123/146
f 91/116/132 92/117/131 100/126/147 99/125/148
f 92/117/134 93/118/133 101/127/149 100/126/147
f 93/118/136 94/119/135 102/128/150 101/127/149
f 94/119/138 95/120/137 103/129/151 102/128/150
f 95/120/140 96/121/139 104/130/152 103/129/151
f 96/121/142 97/122/141 105/131/153 104/130/152
f 97/122/144 98/123/143 106/132/154 105/131/153
f 98/123/146 91/124/145 99/133/148 106/132/154
f 99/125/148 100/126/147 108/135/155 107/134/156
f 100/126/147 101/127/149 109/136/157 108/135/155
f 101/127/149 102/128/150 110/137/158 109/136/157
f 102/128/150 103/129/151 111/138/159 110/137/158
f 103/129/151 104/130/152 112/139/160 111/138/159
f 104/130/152 105/131/153 113/140/161 112/139/160
f 105/131/153 106/132/154 114/141/162 113/140/161
f 106/132/154 99/133/148 107/142/156 114/141/162
f 60/81/84 59/80/83 115/143/163
f 61/82/87 60/81/84 115/144/163
f 62/83/89 61/82/87 115/145/163
f 63/84/91 62/83/89 115/146/163
f 64/85/93 63/84/91 115/147/163
f 65/86/95 64/85/93 115/148/163
f 66/87/97 65/86/95 115/149/163
f 59/88/83 66/87/97 115/150/163
f 107/134/156 108/135/155 116/151/164
f 108/135/155 109/136/157 116/152/164
f 109/136/157 110/137/158 116/153/164
f 110/137/158 111/138/159 116/154/164
f 111/138/159 112/139/160 116/155/164
f 112/139/160 113/140/161 116/156/164
f 113/140/161 114/141/162 116/157/164
f 114/141/162 107/142/156 116/158/164
