# This file uses centimeters as units for non-parametric coordinates.

mtllib box2.mtl
g default
v 0.132595 -1.323885 -2.232501
v 0.907980 -1.323885 -1.920962
v 0.132595 0.563275 -2.232501
v 0.907980 0.563275 -1.920962
v 0.424135 0.563275 -2.958108
v 1.199519 0.563275 -2.646569
v 0.424135 -1.323885 -2.958108
v 1.199519 -1.323885 -2.646569
vt 0.375000 0.000000
vt 0.625000 0.000000
vt 0.625000 0.250000
vt 0.375000 0.250000
vt 0.625000 0.500000
vt 0.375000 0.500000
vt 0.625000 0.750000
vt 0.375000 0.750000
vt 0.625000 1.000000
vt 0.375000 1.000000
vt 0.875000 0.000000
vt 0.875000 0.250000
vt 0.125000 0.000000
vt 0.125000 0.250000
vn -0.372820 0.000000 0.927904
vn -0.372820 0.000000 0.927904
vn -0.372820 0.000000 0.927904
vn -0.372820 0.000000 0.927904
vn 0.000000 1.000000 0.000000
vn 0.000000 1.000000 0.000000
vn 0.000000 1.000000 0.000000
vn 0.000000 1.000000 0.000000
vn 0.372820 0.000000 -0.927904
vn 0.372820 0.000000 -0.927904
vn 0.372820 0.000000 -0.927904
vn 0.372820 0.000000 -0.927904
vn 0.000000 -1.000000 0.000000
vn 0.000000 -1.000000 0.000000
vn 0.000000 -1.000000 0.000000
vn 0.000000 -1.000000 0.000000
vn 0.927904 0.000000 0.372820
vn 0.927904 0.000000 0.372820
vn 0.927904 0.000000 0.372820
vn 0.927904 0.000000 0.372820
vn -0.927904 0.000000 -0.372820
vn -0.927904 0.000000 -0.372820
vn -0.927904 0.000000 -0.372820
vn -0.927904 0.000000 -0.372820
s off
g box2:pCube3
usemtl box2:initialShadingGroup
f 1/1/1 2/2/2 4/3/3 3/4/4
f 3/4/5 4/3/6 6/5/7 5/6/8
f 5/6/9 6/5/10 8/7/11 7/8/12
f 7/8/13 8/7/14 2/9/15 1/10/16
f 2/2/17 8/11/18 6/12/19 4/3/20
f 7/13/21 1/1/22 3/4/23 5/14/24
