# This file uses centimeters as units for non-parametric coordinates.

mtllib largebox.mtl
g default
v 1.447581 -0.915393 3.392396
v -1.493262 -0.915393 3.392396
v 1.447581 -0.915393 -3.069219
v -1.493262 -0.915393 -3.069219
v 1.447581 1.530922 -3.069219
v -1.493262 1.530922 -3.069219
v -1.493262 1.530922 3.392396
v 1.447581 1.530922 3.392396
vt 0.392541 0.259939
vt 0.604172 0.259939
vt 0.604172 0.489541
vt 0.392541 0.489541
vt 0.392541 0.259939
vt 0.604172 0.259939
vt 0.604172 0.489541
vt 0.392541 0.489541
vn 0.000000 1.000000 0.000000
vn 0.000000 1.000000 0.000000
vn 0.000000 1.000000 0.000000
vn 0.000000 1.000000 0.000000
vn 0.000000 0.000000 -1.000000
vn 0.000000 0.000000 -1.000000
vn 0.000000 0.000000 -1.000000
vn 0.000000 0.000000 -1.000000
vn 0.000000 0.000000 1.000000
vn 0.000000 0.000000 1.000000
vn 0.000000 0.000000 1.000000
vn 0.000000 0.000000 1.000000
vn 0.000000 -1.000000 0.000000
vn 0.000000 -1.000000 0.000000
vn 0.000000 -1.000000 0.000000
vn 0.000000 -1.000000 0.000000
s off
g largebox:polySurface3pCube1
usemtl largebox:initialShadingGroup
f 2/1/1 1/2/2 3/3/3 4/4/4
f 1/2/5 2/1/6 7/5/7 8/6/8
f 4/4/9 3/3/10 5/7/11 6/8/12
f 6/8/13 5/7/14 8/6/15 7/5/16
