# This file uses centimeters as units for non-parametric coordinates.

mtllib smallight.mtl
g default
v -0.077704 1.097649 -2.125186
v 0.000727 1.142986 -2.103153
v -0.020004 1.032910 -2.197372
v 0.058427 1.078247 -2.175340
v -0.000727 0.960527 -2.117048
v 0.077704 1.005864 -2.095016
v -0.058427 1.025266 -2.044862
v 0.020004 1.070603 -2.022830
vt 0.375000 0.000000
vt 0.625000 0.000000
vt 0.625000 0.250000
vt 0.375000 0.250000
vt 0.625000 0.500000
vt 0.375000 0.500000
vt 0.625000 0.750000
vt 0.375000 0.750000
vt 0.625000 1.000000
vt 0.375000 1.000000
vt 0.875000 0.000000
vt 0.875000 0.250000
vt 0.125000 0.000000
vt 0.125000 0.250000
vn -0.175512 0.659042 -0.731341
vn -0.175512 0.659042 -0.731341
vn -0.175512 0.659042 -0.731341
vn -0.175512 0.659042 -0.731341
vn 0.511377 -0.573758 -0.639761
vn 0.511377 -0.573758 -0.639761
vn 0.511377 -0.573758 -0.639761
vn 0.511377 -0.573758 -0.639761
vn 0.175512 -0.659042 0.731341
vn 0.175512 -0.659042 0.731341
vn 0.175512 -0.659042 0.731341
vn 0.175512 -0.659042 0.731341
vn -0.511377 0.573758 0.639761
vn -0.511377 0.573758 0.639761
vn -0.511377 0.573758 0.639761
vn -0.511377 0.573758 0.639761
vn 0.841242 0.486277 0.236317
vn 0.841242 0.486277 0.236317
vn 0.841242 0.486277 0.236317
vn 0.841242 0.486277 0.236317
vn -0.841242 -0.486277 -0.236317
vn -0.841242 -0.486277 -0.236317
vn -0.841242 -0.486277 -0.236317
vn -0.841242 -0.486277 -0.236317
s off
g pCube2
usemtl initialShadingGroup1
f 1/1/1 2/2/2 4/3/3 3/4/4
f 3/4/5 4/3/6 6/5/7 5/6/8
f 5/6/9 6/5/10 8/7/11 7/8/12
f 7/8/13 8/7/14 2/9/15 1/10/16
f 2/2/17 8/11/18 6/12/19 4/3/20
f 7/13/21 1/1/22 3/4/23 5/14/24
